<?xml version="1.0" encoding="UTF-8"?>
<svg id="Layer_2" data-name="Layer 2" xmlns="http://www.w3.org/2000/svg" viewBox="0 0 615.27 224.6">
  <defs>
    <style>
      .cls-1 {
        fill: #fff;
      }
    </style>
  </defs>
  <g id="Layer_1-2" data-name="Layer 1">
    <g>
      <path class="cls-1" d="m254.03,161c0,14.13-1.72,25.37-5.15,33.68-3.45,8.33-8.75,14.61-15.93,18.85-7.17,4.24-16.45,7.14-27.81,8.71-11.36,1.57-24.82,2.36-40.36,2.36H40.37V27.03c0-2.96,1.29-5.36,3.88-7.22,2.59-1.85,5-2.77,7.22-2.77,8.13-.37,16.83-.56,26.08-.56h28.03c9.43,0,19.14.19,29.13.56,4.79.37,8.9,1.37,12.35,2.98.48.5.91,1.02,1.32,1.57.23.32.46.66.68.99,2.07,3.15,3.56,7.24,4.44,12.16.22,1.24.41,2.58.55,4.01-.87-.12-1.78-.2-2.73-.24-3.89-.31-8.3-.47-13.23-.47h-46.42c-3.59,0-6.51,1.1-8.75,3.29-2.24,2.21-3.36,5.5-3.36,9.9v36.64h-7.42v48.9h7.42v51.08h61.44c5.98,0,11.36-.15,16.15-.47,4.78-.31,8.89-1.33,12.34-3.06,3.43-1.72,6.12-4.71,8.07-8.95,1.94-4.24,2.91-10.13,2.91-17.67,0-6.67-.81-12.05-2.45-16.15,12.94-.92,24.59-3.66,34.94-8.25,9.22-4.07,16.97-10.13,23.28-18.14,2.08,1.19,3.98,2.56,5.68,4.14,3.88,3.62,6.88,8.88,8.97,15.79,2.09,6.91,3.14,15.54,3.14,25.91Z"/>
      <path class="cls-1" d="m219.33,98.23c-5.99,2.99-12.11,4.64-18.39,4.94,7.77,0,14.57.79,20.41,2.36,3.27.89,6.23,2.1,8.89,3.63-6.31,8.01-14.06,14.07-23.28,18.14-10.35,4.59-22,7.33-34.94,8.25-3.25.24-6.59.36-10.01.36-22.2-.37-45.14-.56-68.82-.56h-19.63v-46.06h49.6c1.61,0,3.17-.09,4.67-.25,4.71-.51,8.89-1.81,12.54-3.91,4.8-2.78,8.6-7.31,11.37-13.6,2.78-6.29,4.17-14.43,4.17-24.42,0-2.91-.15-5.61-.41-8.15-.15-1.55-.35-3.06-.6-4.47-.92-5.14-2.47-9.36-4.66-12.69-.23-.35-.47-.71-.72-1.05-4.25-5.73-11.19-8.97-20.81-9.71-9.99-.37-19.7-.56-29.13-.56h-28.03c-9.25,0-17.95.19-26.08.56-2.22,0-4.63.92-7.22,2.77-2.59,1.86-3.88,4.26-3.88,7.22v203.57H0V22.61C0,13.51,1.86,7.62,5.6,4.95S14.5.94,21.08.94c12.85,0,23.84-.07,32.96-.23,9.12-.16,16.97-.31,23.55-.47,6.58-.16,12.86-.24,18.84-.24h19.29c8.36,0,17.56.08,27.58.24,10.02.16,19.44.23,28.26.23s15.17.16,19.06.47c16.44,1.26,28.85,5.97,37.23,14.14,8.37,8.17,12.56,21.04,12.56,38.63,0,12.56-2.02,22.38-6.06,29.44-4.03,7.07-9.04,12.1-15.02,15.08Z"/>
    </g>
    <g>
      <g>
        <path class="cls-1" d="m299.2,173.52v-40.09c0-2.52.42-4.28,1.27-5.3.85-1.02,2.53-1.53,5.05-1.53,3.2,0,6.58-.02,10.15-.05,3.57-.03,7.14-.03,10.71,0,3.57.04,6.92.05,10.05.05,2.99.14,5.61.68,7.85,1.63,2.24.95,3.99,2.47,5.25,4.54,1.26,2.08,1.89,4.84,1.89,8.31,0,3.88-.63,7-1.89,9.38-1.26,2.38-3.03,4.1-5.3,5.15-2.28,1.06-4.98,1.58-8.11,1.58-3.81-.07-7.75-.1-11.83-.1h-11.93c0-2.04.02-3.55.05-4.54.03-.98.19-1.65.46-1.99.27-.34.82-.51,1.63-.51h16.01c1.36,0,2.58-.27,3.67-.82,1.09-.54,1.94-1.46,2.55-2.75.61-1.29.92-3.02.92-5.2,0-2.31-.44-4.08-1.33-5.3-.88-1.22-2.35-1.9-4.39-2.04-1.9-.14-3.88-.2-5.92-.2s-4.01.02-5.92.05c-1.9.04-3.61.05-5.1.05-.41,0-.88.17-1.43.51-.54.34-.82.85-.82,1.53v37.64h-13.57Z"/>
        <path class="cls-1" d="m381.11,174.13c-4.49,0-8.2-.29-11.12-.87-2.92-.58-5.24-1.58-6.94-3.01-1.7-1.43-2.92-3.47-3.67-6.12-.75-2.65-1.12-6.05-1.12-10.2,0-5.17.7-9.32,2.09-12.44,1.39-3.13,3.84-5.41,7.34-6.83,3.5-1.43,8.38-2.14,14.64-2.14,4.9,0,8.81.54,11.73,1.63,2.92,1.09,5.03,2.81,6.32,5.15,1.29,2.35,1.94,5.36,1.94,9.03v7.14h-28.56c0-1.22.29-2.26.87-3.11.58-.85,1.62-1.27,3.11-1.27h13.46v-2.45c-.07-3.26-.76-5.68-2.09-7.24-1.33-1.56-3.72-2.35-7.19-2.35-2.92,0-5.19.44-6.78,1.33-1.6.88-2.72,2.38-3.37,4.49-.65,2.11-.97,5.07-.97,8.87s.37,6.46,1.12,8.36c.75,1.9,2.06,3.18,3.93,3.83,1.87.65,4.47.97,7.8.97,1.22,0,2.77-.03,4.64-.1,1.87-.07,3.77-.15,5.71-.26,1.94-.1,3.65-.24,5.15-.41,1.5-.17,2.45-.32,2.86-.46v1.63c0,.82-.15,1.68-.46,2.6s-.97,1.65-1.99,2.19c-1.29.82-3.45,1.36-6.48,1.63-3.03.27-7.02.41-11.99.41Z"/>
        <path class="cls-1" d="m408.95,153.12c0-5.57.78-9.86,2.35-12.85,1.56-2.99,3.82-5.05,6.78-6.17,2.96-1.12,6.48-1.68,10.56-1.68,1.22,0,2.63.07,4.23.2,1.6.14,3.14.32,4.64.56,1.5.24,2.82.51,3.98.82,1.16.31,2,.63,2.55.97l-3.06,1.33v-14.28h12.24l-.1,31.01c0,4.63-.38,8.31-1.12,11.07-.75,2.75-1.99,4.83-3.72,6.22-1.73,1.39-4.08,2.31-7.04,2.75-2.96.44-6.65.66-11.07.66-4.01,0-7.4-.27-10.15-.82-2.75-.54-4.93-1.53-6.53-2.96-1.6-1.43-2.75-3.5-3.47-6.22-.71-2.72-1.07-6.26-1.07-10.61Zm21.52,14.08c2.24,0,4.06-.19,5.46-.56,1.39-.37,2.45-1,3.16-1.89s1.21-2.16,1.48-3.83c.27-1.67.41-3.79.41-6.38l-.1-14.59c-.54-.07-1.29-.12-2.24-.15-.95-.03-1.94-.08-2.96-.15-1.02-.07-1.97-.1-2.86-.1-2.86,0-5.12.36-6.78,1.07-1.67.71-2.86,2.06-3.57,4.03-.71,1.97-1.07,4.86-1.07,8.67s.29,6.9.87,8.87c.58,1.97,1.55,3.3,2.91,3.98,1.36.68,3.13,1.02,5.3,1.02Z"/>
        <path class="cls-1" d="m474.64,173.52h-8.67c-1.29,0-2.24-.32-2.86-.97-.61-.65-.92-1.92-.92-3.83v-33.86c1.77-.47,4.3-.98,7.6-1.53,3.3-.54,7.09-.82,11.37-.82s7.89.27,10.4.82c2.51.54,4.37,1.33,5.56,2.35,1.19,1.02,1.95,2.31,2.3,3.88.34,1.56.51,3.43.51,5.61h-11.83v-1.43c-.07-1.63-.44-2.82-1.12-3.57-.68-.75-1.53-1.21-2.55-1.38-1.02-.17-2.04-.25-3.06-.25-1.5,0-2.84.15-4.03.46-1.19.31-2.09.73-2.7,1.27v33.25Z"/>
        <path class="cls-1" d="m528.09,174.13c-3.61,0-6.8-.25-9.59-.77-2.79-.51-5.15-1.5-7.09-2.96-1.94-1.46-3.42-3.59-4.44-6.38-1.02-2.79-1.53-6.39-1.53-10.81s.51-8.02,1.53-10.81c1.02-2.79,2.5-4.91,4.44-6.38,1.94-1.46,4.3-2.45,7.09-2.96,2.79-.51,5.98-.76,9.59-.76s6.88.25,9.64.76c2.75.51,5.08,1.5,6.99,2.96,1.9,1.46,3.35,3.59,4.33,6.38.99,2.79,1.48,6.39,1.48,10.81s-.49,8.11-1.48,10.86c-.99,2.75-2.43,4.86-4.33,6.32-1.9,1.46-4.25,2.45-7.04,2.96-2.79.51-5.98.77-9.59.77Zm0-6.22c2.18,0,3.99-.37,5.46-1.12,1.46-.75,2.57-2.18,3.32-4.28.75-2.11,1.12-5.2,1.12-9.28s-.38-7.17-1.12-9.28c-.75-2.11-1.85-3.53-3.32-4.28-1.46-.75-3.28-1.12-5.46-1.12s-3.91.37-5.41,1.12c-1.5.75-2.65,2.18-3.47,4.28-.82,2.11-1.22,5.2-1.22,9.28s.41,7.18,1.22,9.28c.82,2.11,1.97,3.54,3.47,4.28,1.5.75,3.3,1.12,5.41,1.12Z"/>
      </g>
      <g>
        <path class="cls-1" d="m382.31,224.19h-25.55c-2.82,0-5.19-.07-7.09-.2v-42.23c0-1.97.42-3.25,1.27-3.83.85-.58,2.02-.87,3.52-.87,2.45,0,4.59-.02,6.43-.05,1.84-.03,3.47-.07,4.9-.1s2.79-.05,4.08-.05h4.18c1.77,0,3.69.02,5.76.05,2.07.03,4.01.05,5.81.05s3.14.04,4.03.1c3.81.27,6.63,1.33,8.47,3.16,1.84,1.84,2.75,4.59,2.75,8.26,0,2.72-.44,4.84-1.33,6.38-.88,1.53-2.01,2.64-3.37,3.31-1.36.68-2.69,1.06-3.98,1.12,1.56,0,2.99.15,4.28.46,1.29.31,2.38.85,3.26,1.63.88.78,1.6,1.92,2.14,3.42.54,1.5.82,3.43.82,5.81,0,3.06-.46,5.49-1.38,7.29-.92,1.8-2.24,3.16-3.98,4.08s-3.86,1.51-6.38,1.79c-2.52.27-5.41.41-8.67.41Zm-4.18-6.63c1.5,0,2.91-.05,4.23-.15s2.48-.36,3.47-.76c.99-.41,1.77-1.14,2.35-2.19.58-1.05.87-2.5.87-4.33,0-2.72-.56-4.59-1.68-5.61-1.12-1.02-3.42-1.53-6.88-1.53h-14.79c-1.16,0-1.89-.53-2.19-1.58-.31-1.05-.46-2.6-.46-4.64h17.03c1.29,0,2.48-.17,3.57-.51,1.09-.34,1.95-1.04,2.6-2.09.65-1.05.97-2.63.97-4.74s-.44-3.71-1.33-4.79c-.88-1.09-2.31-1.67-4.28-1.73-1.02-.07-2.18-.12-3.47-.15-1.29-.03-2.58-.05-3.88-.05h-4.49c-1.43,0-2.69.04-3.77.1-.82,0-1.48.22-1.99.66-.51.44-.76,1.17-.76,2.19v31.82c.88,0,1.67.02,2.35.05.68.04,1.48.05,2.4.05h10.15Z"/>
        <path class="cls-1" d="m433.92,224.6c-4.49,0-8.2-.29-11.12-.87-2.92-.58-5.24-1.58-6.94-3.01-1.7-1.43-2.92-3.47-3.67-6.12-.75-2.65-1.12-6.05-1.12-10.2,0-5.17.7-9.32,2.09-12.44,1.39-3.13,3.84-5.41,7.34-6.83,3.5-1.43,8.38-2.14,14.64-2.14,4.9,0,8.81.54,11.73,1.63,2.92,1.09,5.03,2.81,6.32,5.15,1.29,2.35,1.94,5.36,1.94,9.03v7.14h-28.56c0-1.22.29-2.26.87-3.11.58-.85,1.62-1.28,3.11-1.28h13.46v-2.45c-.07-3.26-.76-5.68-2.09-7.24-1.33-1.56-3.72-2.35-7.19-2.35-2.92,0-5.19.44-6.78,1.33-1.6.88-2.72,2.38-3.37,4.49-.65,2.11-.97,5.07-.97,8.87s.37,6.46,1.12,8.36c.75,1.9,2.06,3.18,3.93,3.83,1.87.65,4.47.97,7.8.97,1.22,0,2.77-.03,4.64-.1,1.87-.07,3.77-.15,5.71-.25,1.94-.1,3.65-.24,5.15-.41,1.5-.17,2.45-.32,2.86-.46v1.63c0,.82-.15,1.68-.46,2.6s-.97,1.65-1.99,2.19c-1.29.82-3.45,1.36-6.48,1.63-3.03.27-7.02.41-11.99.41Z"/>
        <path class="cls-1" d="m466.56,223.99c-2.24,0-3.37-1.16-3.37-3.47v-34.58c2.04-.82,4.95-1.51,8.72-2.09,3.77-.58,7.97-.87,12.6-.87s8.65.27,11.48.82c2.82.54,4.93,1.46,6.32,2.75,1.39,1.29,2.31,2.99,2.75,5.1.44,2.11.66,4.73.66,7.85v19.69c0,1.22-.09,2.19-.25,2.91-.17.71-.61,1.22-1.33,1.53-.71.31-1.82.46-3.32.46l-7.34-.1v-27.34c0-2.38-.75-4.11-2.24-5.2-1.5-1.09-3.71-1.63-6.63-1.63-1.02,0-2.11.09-3.26.26-1.16.17-2.24.41-3.26.71-1.02.31-1.87.7-2.55,1.17v32.03h-8.98Z"/>
        <path class="cls-1" d="m525.82,224.4c-4.01,0-6.78-.87-8.31-2.6-1.53-1.73-2.29-4.47-2.29-8.21v-30.29h12.44v29.68c0,2.38.31,4.03.92,4.95s1.7,1.38,3.26,1.38c.75,0,1.46-.07,2.14-.2.68-.13,1.12-.24,1.33-.31v4.69c-.27.07-.75.17-1.43.31-.68.14-1.67.27-2.96.41-1.29.14-2.99.2-5.1.2Zm-4.28-46.41c-1.97,0-3.4-.25-4.28-.76-.88-.51-1.33-1.48-1.33-2.91s.46-2.41,1.38-2.96c.92-.54,2.36-.82,4.33-.82,1.97.07,3.38.36,4.23.87.85.51,1.24,1.48,1.17,2.91,0,1.43-.41,2.4-1.22,2.91-.82.51-2.24.76-4.28.76Z"/>
        <path class="cls-1" d="m555.3,224.4c-3.2,0-5.7-.36-7.5-1.07s-3.08-1.9-3.82-3.57c-.75-1.67-1.12-3.96-1.12-6.88v-23.05h-4.18v-6.53h4.18v-6.02c0-1.43.1-2.48.31-3.16.2-.68.63-1.12,1.28-1.33.65-.2,1.61-.31,2.91-.31h7.96c0,.2-.02.53-.05.97-.04.44-.05,1-.05,1.68v8.16h9.79v6.53h-9.69v21.93c0,2.65.25,4.57.76,5.76.51,1.19,1.85,1.79,4.03,1.79.68,0,1.48-.07,2.4-.2.92-.13,1.55-.27,1.89-.41v4.79c-.41.07-1.43.24-3.06.51s-3.64.41-6.02.41Z"/>
        <path class="cls-1" d="m592.83,224.6c-3.61,0-6.8-.25-9.59-.77-2.79-.51-5.15-1.5-7.09-2.96-1.94-1.46-3.42-3.59-4.44-6.38-1.02-2.79-1.53-6.39-1.53-10.81s.51-8.02,1.53-10.81c1.02-2.79,2.5-4.91,4.44-6.38,1.94-1.46,4.3-2.45,7.09-2.96,2.79-.51,5.98-.77,9.59-.77s6.88.25,9.64.77c2.75.51,5.08,1.5,6.99,2.96,1.9,1.46,3.35,3.59,4.33,6.38.99,2.79,1.48,6.39,1.48,10.81s-.49,8.11-1.48,10.86c-.99,2.75-2.43,4.86-4.33,6.32-1.9,1.46-4.25,2.45-7.04,2.96-2.79.51-5.98.77-9.59.77Zm0-6.22c2.18,0,3.99-.37,5.46-1.12,1.46-.75,2.57-2.17,3.32-4.28.75-2.11,1.12-5.2,1.12-9.28s-.38-7.17-1.12-9.28c-.75-2.11-1.85-3.54-3.32-4.28-1.46-.75-3.28-1.12-5.46-1.12s-3.91.37-5.41,1.12c-1.5.75-2.65,2.18-3.47,4.28-.82,2.11-1.22,5.2-1.22,9.28s.41,7.17,1.22,9.28c.82,2.11,1.97,3.54,3.47,4.28,1.5.75,3.3,1.12,5.41,1.12Z"/>
      </g>
    </g>
  </g>
</svg>