<?xml version="1.0" encoding="UTF-8"?>
<svg id="Layer_2" data-name="Layer 2" xmlns="http://www.w3.org/2000/svg" viewBox="0 0 74.94 74.94">
  <defs>
    <style>
      .cls-1 {
        fill: #fff;
      }
    </style>
  </defs>
  <g id="Objects">
    <g>
      <path class="cls-1" d="m50.43,21.54c-5.43-.17-9.1,2.89-11.03,9.19.99-.43,1.96-.64,2.9-.64,1.99,0,2.87,1.12,2.63,3.36-.12,1.35-1,3.32-2.63,5.91-1.64,2.59-2.87,3.88-3.69,3.88-1.06,0-2.02-1.99-2.9-5.99-.3-1.17-.82-4.16-1.58-8.97-.7-4.46-2.58-6.54-5.62-6.25-1.29.12-3.22,1.29-5.8,3.52-1.88,1.7-3.78,3.4-5.71,5.1l1.84,2.37c1.75-1.23,2.78-1.85,3.07-1.85,1.35,0,2.6,2.11,3.77,6.32,1.05,3.86,2.11,7.73,3.16,11.59,1.58,4.21,3.51,6.32,5.79,6.32,3.68,0,8.19-3.46,13.51-10.38,5.15-6.63,7.81-11.85,7.98-15.66.23-5.1-1.66-7.71-5.69-7.83Z"/>
      <path class="cls-1" d="m37.47,0C16.81,0,0,16.81,0,37.47s16.81,37.47,37.47,37.47,37.47-16.81,37.47-37.47S58.13,0,37.47,0Zm0,70.13c-18.01,0-32.66-14.65-32.66-32.66S19.46,4.81,37.47,4.81s32.67,14.65,32.67,32.66-14.65,32.66-32.67,32.66Z"/>
    </g>
  </g>
</svg>