<svg xmlns="http://www.w3.org/2000/svg" width="800px" height="800px" fill="none" viewBox="0 0 24 24"><path stroke="#FFF" stroke-linecap="round" stroke-linejoin="round" stroke-width="1.5" d="M12 14v-2m0 2v2m0-2c-4 0-8-1-7.939-3M12 14c4 0 8-1 7.939-3M4.06 11c-.038.633-.06 1.307-.06 2 0 3.111.444 5.833.889 6.222.444.39 3.555.778 7.111.778 3.556 0 6.667-.389 7.111-.778.445-.389.889-3.11.889-6.222 0-.693-.022-1.367-.061-2M4.06 11c.137-2.208.482-3.92.828-4.222C5.333 6.388 9 6.093 9 6.093M19.939 11c-.137-2.208-.483-3.92-.828-4.222-.444-.39-4.111-.685-4.111-.685m-6 0A47.649 47.649 0 0 1 12 6c1.059 0 2.079.035 3 .093m-6 0V5c0-1.775 1.637-2 3-2s3 .225 3 2v1.093"/></svg>